<?xml version="1.0" encoding="utf-8"?>
<svg xmlns="http://www.w3.org/2000/svg" xmlns:serif="http://www.serif.com/" xmlns:xlink="http://www.w3.org/1999/xlink"  style="fill-rule:evenodd;clip-rule:evenodd;stroke-linejoin:round;stroke-miterlimit:2;" version="1.1" xml:space="preserve" viewBox="0 0 174 52">
	<title>The signature of Valeria Brinton.</title>
	<path d="M26.885,0.414C26.679,0.643 26.382,1.1 26.199,1.42C26.039,1.763 25.491,2.517 24.988,3.111C24.508,3.706 23.936,4.506 23.731,4.917C23.525,5.306 22.839,6.289 22.199,7.066C21.559,7.866 20.782,8.894 20.462,9.351C20.119,9.809 19.639,10.449 19.342,10.769C19.045,11.089 18.679,11.614 18.496,11.957C18.336,12.3 17.948,12.894 17.628,13.26C17.331,13.649 17.102,14.06 17.102,14.197C17.102,14.311 16.828,14.769 16.485,15.203C16.165,15.637 15.891,16.117 15.891,16.277C15.891,16.437 15.799,16.551 15.685,16.551C15.571,16.551 14.954,17.329 14.314,18.266C12.691,20.597 12.508,20.871 11.708,22.22C11.319,22.86 10.656,23.888 10.222,24.483C9.811,25.1 9.056,26.334 8.576,27.248C8.074,28.163 7.457,29.237 7.159,29.626C6.268,30.883 2.931,37.488 2.931,38.014C2.931,38.197 2.817,38.426 2.702,38.517C2.565,38.586 2.451,38.928 2.451,39.226C2.451,39.546 2.245,40.003 1.994,40.231C1.742,40.483 1.468,41.031 1.377,41.488C1.285,41.923 0.919,42.86 0.577,43.523C0.234,44.208 -0.018,45.077 0.005,45.465C0.028,45.877 0.051,46.7 0.074,47.34C0.097,48.574 0.279,48.711 0.988,48.003C1.239,47.751 1.651,47.523 1.879,47.477C2.131,47.431 2.679,46.837 3.091,46.197C3.868,44.963 5.514,42.723 6.977,40.94C7.434,40.391 9.308,38.357 11.159,36.414C13.034,34.471 14.656,32.688 14.794,32.46C15.068,31.957 19.685,27.386 22.108,25.237C23.114,24.346 24.554,22.974 25.354,22.174C26.154,21.374 27.228,20.414 27.754,20.026C28.279,19.637 29.148,18.906 29.674,18.426C30.222,17.923 30.771,17.511 30.908,17.511C31.068,17.511 31.502,17.26 31.868,16.963C32.233,16.666 32.873,16.209 33.285,15.957C33.719,15.683 34.382,15.249 34.793,14.997C35.205,14.723 35.685,14.289 35.822,13.991C36.028,13.626 36.393,13.466 37.262,13.374C37.925,13.306 38.679,13.054 39.091,12.734C39.456,12.437 40.028,12.026 40.348,11.774C40.759,11.477 40.873,11.226 40.759,10.929C40.622,10.563 40.393,10.517 39.456,10.609C38.565,10.677 37.925,10.997 36.416,12.049C35.365,12.803 34.336,13.557 34.131,13.74C33.925,13.923 33.422,14.22 32.988,14.38C32.553,14.563 32.073,14.906 31.959,15.134C31.822,15.386 31.525,15.591 31.273,15.591C31.045,15.591 30.656,15.797 30.405,16.071C30.176,16.346 29.856,16.551 29.719,16.551C29.582,16.551 29.239,16.757 28.988,17.031C28.714,17.283 27.799,18.06 26.954,18.746C23.799,21.306 15.365,29.603 12.234,33.237C11.434,34.151 10.245,35.477 9.605,36.163C8.942,36.848 8.165,37.74 7.891,38.128C7.457,38.746 5.857,40.665 2.954,44.117C2.108,45.123 1.857,44.803 2.451,43.545C3.548,41.237 3.891,40.368 3.891,40.026C3.891,39.82 4.097,39.477 4.371,39.226C4.645,38.997 4.851,38.654 4.851,38.471C4.851,38.083 7.457,33.443 8.119,32.62C8.279,32.437 9.034,31.088 9.788,29.626C12.096,25.168 13.788,22.243 14.565,21.351C14.862,21.031 15.891,19.454 16.874,17.877C17.834,16.277 18.816,14.723 19.068,14.38C22.336,9.946 23.616,8.209 23.868,7.911C24.051,7.706 24.394,7.249 24.622,6.883C24.851,6.517 26.062,5.169 27.296,3.911C29.651,1.511 30.039,0.734 29.102,0.231C28.394,-0.134 27.296,-0.066 26.885,0.414Z" style="fill-rule:nonzero;"/>
	<path d="M100.987,7.683C100.644,7.957 100.37,8.346 100.37,8.529C100.37,8.711 100.256,8.871 100.142,8.871C100.004,8.871 99.73,9.26 99.547,9.717C99.09,10.814 93.262,16.597 91.57,17.648C91.205,17.877 90.793,18.197 90.656,18.357C90.153,18.906 87.982,20.323 85.925,21.443C85.216,21.808 84.485,22.266 84.279,22.448C84.073,22.631 83.753,22.791 83.57,22.791C83.387,22.791 82.679,23.226 81.993,23.751C81.285,24.277 80.622,24.711 80.507,24.711C80.393,24.711 79.707,25.123 78.999,25.648C77.399,26.768 76.028,27.477 75.022,27.66C74.61,27.751 73.902,28.14 73.468,28.528C73.056,28.917 72.348,29.374 71.959,29.511C71.136,29.831 67.525,31.591 65.81,32.528C65.216,32.848 64.622,33.123 64.462,33.1C64.302,33.1 63.433,33.534 62.542,34.037C60.416,35.226 57.925,36.323 56.096,36.848C54.702,37.237 53.811,37.763 53.811,38.197C53.811,38.654 56.073,38.106 58.496,37.054C59.57,36.597 62.816,35.294 64.965,34.448C66.016,34.037 67.845,33.191 69.01,32.574C70.176,31.934 71.25,31.431 71.388,31.431C71.525,31.431 72.005,31.157 72.439,30.814C72.873,30.494 73.65,30.06 74.153,29.9C74.656,29.717 75.479,29.283 76.005,28.917C76.53,28.551 77.216,28.163 77.49,28.048C77.787,27.934 78.565,27.477 79.227,26.997C79.89,26.54 80.507,26.151 80.599,26.151C80.759,26.151 83.593,24.483 85.147,23.5C86.725,22.517 89.102,20.826 89.216,20.62C89.285,20.506 89.536,20.391 89.742,20.391C89.97,20.391 89.239,21.283 87.982,22.563C82.13,28.506 81.033,29.557 78.747,31.683C77.376,32.917 75.342,34.814 74.222,35.888C69.285,40.574 65.65,43.865 64.279,44.917C59.639,48.483 59.776,48.368 59.959,48.848C60.233,49.534 61.262,49.214 62.656,48.003C63.388,47.363 64.668,46.357 65.49,45.785C68.028,43.98 69.399,42.791 74.222,38.174C80.85,31.774 81.605,31.043 83.319,29.168C84.233,28.186 85.33,27.248 86.085,26.86C86.793,26.517 87.707,25.968 88.142,25.671C88.553,25.374 89.947,24.666 91.227,24.094C92.485,23.546 94.496,22.631 95.662,22.083C97.125,21.397 97.97,21.123 98.359,21.214C98.976,21.374 99.09,21.946 98.61,22.586C98.245,23.088 95.845,24.986 93.513,26.631C92.485,27.363 91.319,28.231 90.907,28.574C90.496,28.917 89.422,29.557 88.485,29.991C87.57,30.426 85.719,31.294 84.393,31.911C83.067,32.551 81.673,33.146 81.285,33.237C80.416,33.443 78.587,34.563 78.427,34.974C78.176,35.637 78.999,35.5 80.827,34.586C81.879,34.083 83.159,33.534 83.685,33.374C84.21,33.214 85.033,32.894 85.49,32.643C85.947,32.414 86.862,32.094 87.502,31.934C88.485,31.706 88.759,31.706 89.239,32.026C90.45,32.826 89.81,35.18 87.776,37.42C86.976,38.288 85.925,39.477 85.422,40.026C84.942,40.574 84.416,41.031 84.302,41.031C84.165,41.031 83.959,41.237 83.822,41.511C83.662,41.785 83.41,41.991 83.227,41.991C83.045,41.991 82.793,42.128 82.633,42.311C82.199,42.86 77.742,45.534 77.01,45.694C76.348,45.854 76.325,45.808 76.462,45.214C76.713,44.277 77.513,43.317 78.999,42.174C81.49,40.231 83.045,39.431 85.079,38.997C85.467,38.928 85.742,38.7 85.742,38.471C85.742,38.151 85.536,38.106 84.759,38.22C83.502,38.38 81.627,39.294 79.205,40.94C75.868,43.18 74.725,44.757 75.433,46.128C75.822,46.883 76.05,46.997 77.49,47.157C78.29,47.271 78.907,47.225 79.273,47.02C80.279,46.494 83.913,43.454 84.53,42.608C84.85,42.151 85.49,41.557 85.925,41.26C86.885,40.597 89.765,36.963 90.359,35.66C91.25,33.671 91.136,32.323 89.97,31.386C89.376,30.906 89.33,30.951 91.022,30.151C94.862,28.3 97.605,26.311 99.273,24.14C100.484,22.586 100.667,21.694 99.913,21.008C99.067,20.231 97.696,20.254 96.005,21.054C95.159,21.466 93.787,22.06 92.919,22.426C89.879,23.683 88.759,24.208 87.776,24.848C87.365,25.1 88.347,24.003 89.925,22.426C91.525,20.826 93.65,18.677 94.679,17.626C95.685,16.574 97.079,15.226 97.719,14.631C100.393,12.209 103.136,8.231 102.473,7.729C101.81,7.226 101.604,7.226 100.987,7.683Z" style="fill-rule:nonzero;"/>
	<path d="M47.708,17.397C47.068,17.854 46.382,18.22 46.222,18.22C46.062,18.22 45.628,18.608 45.285,19.066C44.919,19.523 44.508,19.911 44.325,19.911C43.845,19.911 38.976,24.963 36.119,28.437C35.456,29.214 34.679,30.083 34.405,30.334C34.131,30.586 33.582,31.271 33.171,31.888C32.782,32.483 32.096,33.237 31.662,33.534C31.251,33.831 30.199,34.586 29.331,35.203C28.462,35.843 27.434,36.551 27.045,36.803C25.925,37.534 22.908,39.797 20.942,41.42C19.434,42.631 16.074,44.871 15.754,44.871C15.685,44.871 15.662,44.62 15.662,44.323C15.662,43.523 16.348,42.54 18.268,40.62C20.142,38.768 20.256,38.243 18.794,38.494C18.314,38.563 17.651,38.631 17.331,38.608C15.868,38.494 15.365,38.608 14.176,39.226C12.782,39.957 11.342,41.214 10.611,42.38C10.039,43.271 9.994,44.688 10.496,45.123C11.022,45.557 12.211,45.237 13.171,44.391C14.154,43.523 14.565,43.454 14.336,44.208C13.925,45.511 14.039,45.717 15.045,45.717C15.639,45.717 16.439,45.488 17.102,45.123C18.268,44.46 18.405,44.368 21.788,41.877C26.016,38.723 26.314,38.517 27.456,37.854C28.074,37.488 28.668,37.054 28.782,36.894C29.079,36.414 30.542,35.477 30.542,35.751C30.542,35.888 30.108,36.46 29.559,37.008C29.034,37.557 28.302,38.448 27.959,38.974C27.594,39.523 26.954,40.391 26.519,40.94C25.079,42.745 23.571,46.883 24.051,47.751C24.622,48.825 26.222,48.665 27.616,47.385C28.645,46.471 28.965,46.357 29.171,46.905C29.262,47.111 29.605,47.271 29.994,47.271C31.296,47.271 35.319,45.26 37.011,43.751C38.999,42.014 39.959,41.26 40.256,41.26C40.713,41.26 40.713,41.603 40.256,41.991C40.051,42.151 39.891,42.425 39.891,42.608C39.891,42.791 39.571,43.111 39.159,43.363C38.359,43.82 37.971,44.803 38.451,45.1C38.885,45.374 39.662,45.123 40.622,44.391C41.308,43.843 44.919,41.991 45.285,41.991C45.628,41.991 45.262,42.494 43.959,43.911C43.182,44.757 42.542,45.534 42.542,45.648C42.542,45.74 42.748,45.923 42.999,46.06C43.342,46.243 43.982,46.128 45.673,45.58C46.908,45.191 48.005,44.757 48.165,44.665C48.416,44.437 51.365,43.431 51.708,43.431C51.822,43.431 51.731,43.751 51.548,44.14C50.473,46.174 52.005,47.065 53.788,45.465C54.839,44.528 55.113,44.437 54.908,45.077C54.748,45.557 55.296,46.311 55.822,46.311C56.439,46.311 60.965,44.643 62.93,43.705C66.428,42.014 67.433,41.351 67.045,40.963C66.908,40.825 65.49,41.42 63.25,42.54C61.285,43.523 59.068,44.505 58.313,44.734C57.559,44.94 56.782,45.191 56.576,45.26C56.005,45.488 56.119,44.528 56.805,43.431C57.148,42.905 57.788,42.243 58.222,41.945C59.273,41.26 59.708,40.597 59.342,40.231C59.136,40.026 58.793,40.117 58.039,40.505C57.125,40.985 56.919,41.031 56.485,40.757C55.89,40.391 54.725,40.711 53.331,41.648C52.873,41.945 51.411,42.563 50.085,43.043C48.782,43.5 47.296,44.048 46.793,44.254C45.285,44.894 45.285,44.734 46.725,42.631C47.868,40.963 48.051,40.391 47.456,40.163C47.068,40.026 46.839,40.117 43.571,41.991C42.336,42.677 41.239,43.203 41.079,43.157C40.942,43.088 41.262,42.54 41.811,41.923C43.113,40.437 42.999,40.048 41.285,40.231C39.799,40.391 38.748,40.94 37.262,42.357C35.022,44.437 31.296,46.448 30.702,45.854C30.496,45.648 30.702,45.305 31.616,44.437C32.279,43.797 33.125,43.111 33.491,42.86C33.948,42.585 34.131,42.265 34.085,41.945C33.788,40.026 30.428,41.397 29.811,43.705C29.536,44.734 28.668,45.603 27.296,46.311C26.085,46.928 25.971,46.905 25.971,46.22C25.971,45.488 26.565,44.048 27.388,42.837C27.754,42.311 28.462,41.237 28.988,40.437C29.514,39.66 30.336,38.586 30.862,38.037C31.365,37.511 31.959,36.803 32.188,36.46C33.559,34.334 36.279,31.431 36.896,31.431C36.965,31.431 37.879,30.906 38.885,30.266C39.891,29.626 41.171,28.848 41.719,28.528C42.565,28.026 44.645,26.334 47.639,23.683C48.051,23.317 48.485,23.02 48.576,23.02C48.691,23.02 48.782,22.906 48.782,22.723C48.782,22.563 49.125,22.22 49.536,21.946C49.948,21.694 50.656,20.94 51.091,20.3C52.096,18.837 52.165,17.763 51.251,17.054C50.291,16.277 49.102,16.391 47.708,17.397ZM50.336,18.494C50.588,19.294 49.902,20.14 46.108,23.637C42.885,26.586 38.016,30.128 37.445,29.946C37.308,29.9 37.765,29.168 38.473,28.323C39.182,27.5 40.028,26.448 40.325,25.991C40.622,25.534 41.742,24.277 42.793,23.203C43.822,22.151 44.691,21.191 44.691,21.123C44.691,20.871 48.622,18.06 49.125,17.946C49.811,17.808 50.176,17.968 50.336,18.494ZM16.805,39.637C17.102,39.934 15.754,41.351 13.399,43.225C11.891,44.437 11.548,44.437 11.868,43.225C12.142,42.151 13.171,41.031 14.839,40.048C16.165,39.294 16.394,39.226 16.805,39.637ZM31.891,43.34C30.839,44.3 30.519,44.277 31.159,43.271C31.776,42.334 32.279,41.968 32.576,42.265C32.736,42.425 32.508,42.791 31.891,43.34ZM55.25,42.654C55.25,42.974 52.942,45.123 52.782,44.963C52.508,44.688 53.331,43.408 54.13,42.951C54.953,42.425 55.25,42.357 55.25,42.654Z" style="fill-rule:nonzero;"/>
	<path d="M148.187,21.808C146.747,23.408 142.153,27.34 139.456,29.283C136.553,31.363 134.701,32.643 134.519,32.643C134.404,32.643 134.039,33.077 133.696,33.58C133.33,34.106 132.644,34.7 132.141,34.928C131.661,35.157 130.747,35.751 130.107,36.208C129.467,36.688 128.644,37.26 128.279,37.488C126.427,38.654 122.153,41.603 120.896,42.585C119.73,43.5 118.199,44.391 117.81,44.391C117.65,44.391 117.764,44.185 118.039,43.957C118.862,43.317 119.41,42.037 119.067,41.603C118.679,41.123 116.919,41.191 115.479,41.74L114.244,42.197L114.633,41.671C114.839,41.397 115.182,40.917 115.387,40.62C116.142,39.568 115.273,39.34 112.85,39.934C110.336,40.551 109.216,41.054 105.559,43.294C105.147,43.545 104.324,43.98 103.73,44.3C103.136,44.597 102.267,45.123 101.81,45.465C101.124,45.991 100.964,46.037 100.896,45.717C100.85,45.511 101.056,45.031 101.376,44.643C101.673,44.254 102.244,43.5 102.656,42.974C103.044,42.471 103.776,41.785 104.256,41.488C105.353,40.803 105.536,40.391 104.919,40.071C104.347,39.751 102.747,40.14 102.29,40.665C102.016,40.985 95.41,44.323 94.313,44.711C94.039,44.803 93.902,44.734 93.902,44.505C93.902,44.323 94.725,43.614 95.753,42.951C96.782,42.265 97.719,41.58 97.856,41.42C97.993,41.26 98.496,40.825 98.999,40.46C99.73,39.888 99.844,39.706 99.593,39.408C99.387,39.134 98.999,39.088 97.947,39.203C96.896,39.34 96.53,39.294 96.279,38.997C96.027,38.677 96.027,38.517 96.279,38.06C96.713,37.237 96.393,36.46 95.616,36.483C95.182,36.483 94.542,36.848 93.65,37.694C92.919,38.357 91.73,39.34 91.022,39.843C90.29,40.368 89.033,41.283 88.256,41.9C87.456,42.494 86.405,43.203 85.902,43.454C84.987,43.934 84.69,44.643 85.399,44.62C85.902,44.62 87.707,43.614 88.965,42.608C89.49,42.174 90.473,41.488 91.136,41.031C91.799,40.597 92.622,39.934 92.987,39.546C93.65,38.837 94.862,38.608 94.862,39.18C94.862,39.363 95.227,39.683 95.707,39.911C96.645,40.368 96.622,40.62 95.502,41.191C94.199,41.854 91.25,44.391 91.25,44.848C91.25,45.077 91.456,45.465 91.685,45.671C92.667,46.563 94.93,45.923 99.022,43.637C99.936,43.111 100.736,42.745 100.804,42.814C100.85,42.883 100.576,43.34 100.142,43.82C99.205,44.894 98.587,46.151 98.77,46.631C98.839,46.814 99.25,47.065 99.662,47.157C100.302,47.294 100.782,47.134 102.382,46.311C103.456,45.74 104.644,45.054 105.033,44.757C105.444,44.46 106.427,43.888 107.204,43.477C108.004,43.088 109.079,42.54 109.604,42.265C111.684,41.214 113.33,40.643 113.33,40.985C113.33,41.465 110.976,43.568 109.513,44.391C108.073,45.214 107.662,45.877 108.416,46.174C108.85,46.334 109.582,45.991 111.547,44.665C112.782,43.865 113.65,43.431 116.164,42.448C116.462,42.334 116.987,42.22 117.33,42.22C117.902,42.22 117.833,42.334 116.53,43.683C114.77,45.534 114.61,45.785 115.09,46.243C115.616,46.768 117.284,46.288 118.999,45.077C119.707,44.574 120.393,44.14 120.507,44.14C120.599,44.14 120.964,43.843 121.33,43.477C121.696,43.088 122.496,42.54 123.113,42.22C123.73,41.923 124.301,41.58 124.393,41.465C124.461,41.351 125.079,40.917 125.764,40.483C128.804,38.563 134.541,34.426 135.273,33.626C135.524,33.328 135.821,33.1 135.936,33.1C136.21,33.1 138.541,31.386 138.976,30.86C139.159,30.654 139.479,30.471 139.707,30.471C140.073,30.471 139.73,30.837 137.079,33.26C136.096,34.174 136.21,34.06 133.124,37.077C129.81,40.277 127.936,41.877 127.57,41.808C127.387,41.763 126.953,41.9 126.564,42.105C126.039,42.38 125.879,42.585 125.97,42.951C126.107,43.431 125.696,43.888 123.319,45.877C122.427,46.631 122.656,47.043 124.027,47.02C124.964,47.02 125.239,46.883 126.473,45.785C127.227,45.1 128.004,44.345 128.164,44.094C128.37,43.82 128.644,43.705 128.873,43.774C129.079,43.865 130.016,43.568 130.953,43.111C135.25,41.031 137.444,40.071 137.97,40.071C138.153,40.071 137.65,40.688 136.85,41.42C135.09,43.065 134.564,43.934 134.93,44.643C135.319,45.374 137.101,45.351 138.519,44.62C139.593,44.071 141.536,42.083 141.879,41.214C142.016,40.848 142.404,40.437 142.724,40.323C143.387,40.071 152.484,39.066 152.621,39.203C152.781,39.363 152.05,40.048 150.358,41.328C148.964,42.403 148.141,43.294 148.141,43.705C148.141,43.82 148.37,44.025 148.644,44.163C149.238,44.483 149.787,44.254 151.638,42.905C152.324,42.425 153.947,41.58 155.25,41.031C156.553,40.483 157.901,39.888 158.267,39.683C158.633,39.477 158.93,39.408 158.93,39.523C158.93,39.728 157.741,41.26 156.896,42.174C156.621,42.448 156.21,42.997 155.981,43.385C155.593,44.048 155.593,44.14 155.936,44.483C156.438,44.985 157.924,44.62 159.524,43.614C159.798,43.454 160.461,43.02 161.033,42.654C162.838,41.511 166.976,40.117 168.941,40.003C170.153,39.934 170.93,39.294 170.93,38.357C170.93,37.603 170.175,36.94 169.261,36.94C168.918,36.963 168.118,37.214 167.456,37.534C166.793,37.854 165.878,38.243 165.421,38.426C164.964,38.586 164.141,39.088 163.57,39.5C162.404,40.391 160.141,41.603 159.958,41.42C159.89,41.351 160.118,40.894 160.461,40.391C162.061,38.037 160.187,37.146 157.01,38.746C155.501,39.523 155.09,39.523 155.09,38.746C155.09,38.403 154.861,38.014 154.518,37.786C153.924,37.397 153.467,37.443 151.547,38.06C150.976,38.243 149.947,38.403 149.261,38.403C148.576,38.403 146.77,38.563 145.261,38.723C142.633,39.043 142.473,39.043 142.176,38.608C141.764,38.014 140.873,38.037 140.324,38.631C140.027,38.974 139.593,39.111 138.884,39.111C137.719,39.111 136.667,39.408 135.159,40.208C133.696,40.963 130.61,42.06 130.427,41.877C130.336,41.808 130.519,41.58 130.793,41.374C131.456,40.917 136.164,36.117 136.439,35.637C136.553,35.431 136.987,35.02 137.421,34.723C137.856,34.426 140.05,32.46 142.267,30.311C144.507,28.186 147.364,25.488 148.621,24.323C149.856,23.18 150.976,22.014 151.067,21.786C151.158,21.534 151.136,21.077 150.998,20.757C150.61,19.683 149.833,19.98 148.187,21.808ZM139.981,40.528C139.981,41.031 139.661,41.511 139.341,41.511C139.159,41.511 138.861,41.763 138.656,42.083C138.267,42.654 137.33,43.18 136.69,43.18C136.439,43.18 136.667,42.837 137.307,42.174C137.856,41.603 138.29,41.077 138.29,40.963C138.29,40.757 139.181,40.346 139.661,40.323C139.844,40.323 139.981,40.414 139.981,40.528Z" style="fill-rule:nonzero;"/>
	<path d="M111.913,27.98C111.319,28.734 111.273,29.1 111.799,29.626C112.462,30.288 113.65,29.717 113.924,28.62C114.039,28.14 113.97,27.888 113.65,27.66C113.01,27.18 112.462,27.294 111.913,27.98Z" style="fill-rule:nonzero;"/>
	<path d="M56.119,28.414C55.685,29.077 55.616,30.128 55.982,30.357C56.416,30.631 57.102,30.22 57.536,29.397C57.902,28.734 57.925,28.528 57.673,28.208C57.216,27.66 56.553,27.751 56.119,28.414Z" style="fill-rule:nonzero;"/>
	<path d="M60.233,39.363C59.776,39.637 59.662,40.3 60.073,40.3C60.553,40.3 61.262,39.82 61.262,39.454C61.262,39.066 60.828,39.02 60.233,39.363Z" style="fill-rule:nonzero;"/>
	<path d="M163.364,49.008C158.907,49.237 157.856,49.397 157.856,49.9C157.856,50.197 158.381,50.288 160.736,50.403C162.313,50.494 163.707,50.585 163.844,50.631C163.981,50.677 165.01,50.631 166.153,50.54C167.684,50.38 168.553,50.425 169.627,50.7C172.05,51.317 172.918,51.385 173.398,51.02C174.015,50.54 173.833,49.625 173.101,49.283C172.233,48.894 167.867,48.757 163.364,49.008Z" style="fill-rule:nonzero;"/>
</svg>
