<?xml version="1.0" encoding="utf-8"?>
<svg xmlns="http://www.w3.org/2000/svg" xmlns:serif="http://www.serif.com/" xmlns:xlink="http://www.w3.org/1999/xlink" style="fill-rule:evenodd;clip-rule:evenodd;stroke-linejoin:round;stroke-miterlimit:2;" version="1.1" xml:space="preserve" viewBox="0 0 172 60">
	<title>The signature of Eustace Woodville.</title>
	<path d="M6.894,0.247C5.843,0.453 4.883,0.704 4.745,0.841C4.631,0.956 4.334,1.07 4.083,1.07C3.603,1.07 1.157,2.647 0.494,3.401C0.174,3.744 0.06,4.361 0.014,6.053C-0.032,8.087 -0.009,8.293 0.54,8.864C1.385,9.756 2.848,10.35 4.745,10.533C7.648,10.807 8.22,10.921 8.22,11.31C8.22,11.493 8.38,11.95 8.563,12.316C8.86,12.91 8.837,13.07 8.22,14.396C7.831,15.173 6.871,16.704 6.071,17.756C4.654,19.607 4.608,19.698 4.768,20.75C5.157,23.493 6.62,24.247 9.134,23.036C10.391,22.418 12.768,20.841 13.065,20.407C13.317,20.041 13.477,20.338 13.591,21.253C13.637,21.71 13.705,22.144 13.705,22.236C13.774,22.601 15.191,23.15 16.06,23.15C16.677,23.15 17.34,22.921 18.071,22.418C18.642,22.03 19.26,21.71 19.42,21.71C19.557,21.71 19.74,22.121 19.831,22.601C20.06,23.927 20.722,24.59 21.797,24.59C23.122,24.59 24.402,23.721 26.642,21.276C28.174,19.584 28.722,19.15 29.088,19.241C29.728,19.401 29.728,20.247 29.111,21.047C28.54,21.756 27.991,23.653 28.197,24.178C28.288,24.384 28.631,24.727 28.951,24.956C29.865,25.55 30.368,25.116 30.711,23.538C30.94,22.418 31.191,22.03 32.265,21.001C32.951,20.338 33.545,19.79 33.545,19.79C33.568,19.79 33.591,20.293 33.614,20.91C33.705,22.99 34.642,23.767 36.951,23.653C38.345,23.607 38.414,23.63 38.299,24.11C37.934,25.458 39.945,26.007 41.477,24.956C42.597,24.201 42.688,24.201 42.985,25.07C43.259,25.824 43.717,25.961 44.745,25.573C45.042,25.458 45.934,25.184 46.688,24.933C48.242,24.453 49.248,23.653 49.271,22.921C49.271,22.35 48.745,22.281 47.991,22.784C47.694,22.967 47.008,23.196 46.437,23.287L45.431,23.447L45.659,22.647C46.208,20.75 45.751,20.521 43.968,21.824C43.031,22.487 41.065,23.63 40.082,24.064C39.968,24.11 40.014,23.881 40.151,23.561C40.334,23.173 41.042,22.693 42.391,22.076C44.608,21.047 45.179,20.636 45.179,19.973C45.179,19.561 45.042,19.516 44.288,19.607C43.168,19.744 41.294,20.453 40.059,21.161C38.688,21.984 37.522,22.098 36.745,21.504C35.877,20.818 35.717,19.973 36.197,18.51C36.814,16.659 37.362,15.996 38.277,15.973C40.082,15.973 42.688,15.676 43.191,15.424C43.785,15.127 43.922,14.419 43.442,14.121C43.282,14.03 42.391,13.916 41.477,13.916C39.762,13.87 37.499,13.093 36.517,12.224C36.014,11.767 35.557,11.95 34.894,12.841C34.482,13.413 34.414,13.641 34.619,14.03C34.757,14.304 35.008,14.51 35.191,14.51C36.014,14.51 35.968,15.059 35.008,16.064C33.797,17.344 33.431,17.801 33.408,18.03C33.408,18.258 31.602,20.27 31.42,20.27C31.351,20.27 31.351,19.698 31.42,18.99C31.625,16.979 30.962,16.59 28.837,17.481C28.128,17.779 25.271,20.338 25.248,20.658C25.248,20.933 23.008,22.19 22.505,22.19C22.048,22.19 21.431,21.641 21.431,21.253C21.431,21.093 21.637,20.498 21.934,19.904C22.345,19.036 22.368,18.761 22.14,18.464C21.705,17.939 21.5,18.007 20.151,19.173C19.488,19.767 18.437,20.407 17.82,20.613C17.225,20.796 16.54,21.024 16.334,21.116C15.671,21.367 15.328,20.041 15.671,18.51C16.265,15.881 15.625,15.813 13.225,18.19C11.488,19.904 9.294,21.458 8.585,21.458C7.717,21.458 8.745,18.693 9.934,17.847C11.031,17.07 11.648,15.607 11.762,13.55C11.808,12.567 11.762,11.47 11.625,11.127C11.351,10.419 9.477,9.253 8.288,9.047C7.854,8.979 7.511,8.841 7.511,8.727C7.511,8.43 7.991,8.453 8.905,8.773C9.363,8.933 10.14,8.979 10.78,8.887C12.334,8.636 14.208,6.784 14.802,4.887C15.214,3.584 15.214,3.47 14.825,2.647C14.368,1.733 13.271,0.681 12.38,0.339C11.305,-0.073 8.814,-0.119 6.894,0.247ZM11.054,1.527C11.282,1.641 11.762,1.847 12.128,2.007C12.494,2.144 12.882,2.533 13.02,2.853C13.248,3.47 13.088,5.139 12.791,5.139C12.7,5.139 12.494,5.39 12.357,5.71C12.22,6.007 11.625,6.51 11.008,6.853L9.888,7.424L8.608,6.739C7.877,6.35 7.145,6.099 6.917,6.19C6.437,6.373 6.414,7.516 6.894,7.699C7.1,7.79 7.26,7.996 7.26,8.201C7.26,8.476 7.077,8.521 6.231,8.361C5.683,8.247 4.768,8.156 4.197,8.179C3.648,8.201 3.191,8.11 3.191,8.019C3.191,7.904 2.94,7.584 2.665,7.333C2.323,7.013 2.117,6.464 2.048,5.664L1.934,4.499L3.328,3.447C5.065,2.144 6.094,1.756 8.585,1.55C9.637,1.459 10.528,1.367 10.574,1.344C10.597,1.321 10.802,1.413 11.054,1.527ZM9.18,9.939C9.18,10.076 9.088,10.19 8.951,10.19C8.837,10.19 8.654,10.076 8.585,9.939C8.494,9.824 8.608,9.71 8.814,9.71C9.02,9.71 9.18,9.824 9.18,9.939ZM45.179,24.224C45.179,24.43 45.065,24.59 44.951,24.59C44.814,24.59 44.699,24.43 44.699,24.224C44.699,24.041 44.814,23.858 44.951,23.858C45.065,23.858 45.179,24.041 45.179,24.224Z" style="fill-rule:nonzero;"/>
	<path d="M146.642,3.584C145.385,4.293 145.087,5.893 146.047,6.784C146.802,7.493 147.442,7.447 148.699,6.601C149.59,6.007 149.773,5.71 149.91,4.887C150.093,3.767 150.002,3.607 149.27,3.561C148.973,3.539 148.424,3.47 148.013,3.379C147.579,3.287 147.053,3.356 146.642,3.584Z" style="fill-rule:nonzero;"/>
	<path d="M65.705,5.413C65.042,5.939 64.105,6.761 63.602,7.287C63.099,7.813 62.391,8.361 62.002,8.544C61.385,8.819 61.316,8.933 61.431,9.824C61.659,12.133 62.802,14.739 63.556,14.739C63.716,14.739 63.899,14.967 63.968,15.241C64.036,15.493 64.448,15.881 64.905,16.064C66.048,16.567 67.076,17.733 68.196,19.858C69.339,22.03 69.476,23.173 68.654,23.744C67.968,24.201 66.139,24.224 65.248,23.744C64.425,23.31 63.671,23.287 62.414,23.676C61.705,23.881 61.408,23.881 61.202,23.653C60.974,23.447 61.065,23.241 61.614,22.83C62.071,22.464 62.231,22.167 62.094,21.961C61.956,21.71 62.094,21.687 62.779,21.801C63.534,21.938 63.671,21.916 63.671,21.527C63.671,20.864 62.665,20.041 61.705,19.881C60.585,19.698 58.848,20.316 58.276,21.07C57.956,21.504 57.842,22.03 57.865,22.761C57.888,23.721 57.842,23.836 57.271,23.973C56.151,24.247 54.528,23.881 54.254,23.264C53.979,22.67 54.437,21.71 55.328,20.956C55.625,20.727 55.808,20.247 55.831,19.653C55.854,18.853 55.785,18.693 55.328,18.624C55.008,18.578 54.711,18.738 54.551,19.058C54.391,19.333 54.071,19.538 53.819,19.538C53.111,19.538 52.334,20.59 51.854,22.121C51.465,23.31 51.465,23.516 51.785,24.201C52.539,25.756 52.905,26.03 54.459,26.258C56.288,26.51 58.619,26.03 58.619,25.413C58.619,24.978 58.848,24.978 59.191,25.436C59.556,25.938 62.048,26.03 63.488,25.596C64.539,25.298 64.768,25.298 65.545,25.618C67.739,26.556 68.996,26.35 70.436,24.818C71.579,23.63 71.602,22.761 70.619,20.521C70.231,19.607 69.911,18.784 69.911,18.693C69.911,18.418 68.219,16.407 66.894,15.081C66.071,14.281 65.522,13.481 65.248,12.704C64.722,11.127 64.745,10.51 65.454,9.756C65.774,9.39 66.368,8.727 66.756,8.27L67.465,7.424L68.151,7.927C68.608,8.27 68.974,8.933 69.362,10.076C69.659,10.99 70.002,11.836 70.139,11.973C70.276,12.087 70.391,12.384 70.391,12.613C70.391,13.024 72.539,15.196 73.454,15.699C74.436,16.224 76.242,16.659 77.362,16.659L78.459,16.659L78.254,17.939C77.865,20.293 78.619,22.784 79.899,23.356C80.699,23.721 81.888,23.698 82.665,23.287C83.008,23.104 83.716,22.83 84.219,22.67C84.722,22.51 85.476,22.167 85.888,21.916C86.299,21.664 86.711,21.458 86.779,21.458C86.871,21.458 86.939,22.121 86.939,22.944C86.939,24.316 86.985,24.476 87.808,25.23C89.293,26.647 90.413,27.058 92.219,26.944C94.185,26.784 94.825,26.464 95.968,24.978C97.499,22.967 98.276,21.093 98.596,18.716C98.756,17.527 98.825,16.476 98.779,16.361C98.711,16.27 98.253,16.179 97.728,16.179L96.791,16.179L96.928,17.207C97.202,19.31 94.985,23.058 92.768,24.201C92.196,24.498 91.945,24.498 91.168,24.224C90.116,23.858 89.705,23.378 89.385,22.121C89.133,21.116 89.316,20.133 89.911,19.264C90.139,18.967 90.299,18.487 90.299,18.167C90.299,17.321 89.408,17.504 88.356,18.578C87.145,19.836 85.865,20.613 84.288,21.093C82.756,21.55 81.613,21.573 81.225,21.184C80.905,20.864 80.859,19.058 81.088,17.276L81.248,16.133L83.191,15.219C84.265,14.716 85.431,14.03 85.796,13.687C86.459,13.07 86.802,11.904 86.665,10.876C86.596,10.373 86.459,10.304 85.385,10.281C83.899,10.259 82.665,10.944 80.653,12.887C79.351,14.167 79.168,14.259 78.139,14.259C76.836,14.259 75.236,13.436 74.459,12.361C74.185,11.973 73.705,10.876 73.385,9.916C72.059,5.87 71.694,5.367 69.362,4.796C67.511,4.316 67.031,4.407 65.705,5.413ZM59.351,24.11C59.191,24.384 59.031,24.59 58.962,24.59C58.916,24.59 58.871,24.384 58.871,24.11C58.871,23.836 59.031,23.63 59.236,23.63C59.511,23.63 59.534,23.721 59.351,24.11Z" style="fill-rule:nonzero;"/>
	<path d="M153.567,11.813C152.973,12.43 152.104,13.481 151.67,14.144C150.367,16.087 148.379,19.493 148.379,19.79C148.379,20.224 145.727,22.67 144.699,23.15C143.807,23.584 143.693,23.607 143.305,23.241C142.87,22.853 142.87,22.807 143.465,22.053C144.173,21.093 144.196,20.841 143.579,20.521C143.236,20.316 142.733,20.338 141.727,20.59C140.95,20.796 139.602,21.001 138.733,21.07C137.316,21.184 137.065,21.161 136.859,20.773C136.516,20.087 135.465,19.927 134.893,20.43C134.436,20.841 134.413,21.161 134.733,23.013C134.825,23.538 133.819,24.041 133.179,23.813C132.859,23.676 132.859,23.493 133.247,22.03C133.842,19.676 133.453,18.578 131.83,18.076C131.122,17.87 130.71,17.893 129.796,18.213C129.156,18.418 128.585,18.556 128.516,18.487C128.447,18.418 128.402,18.007 128.402,17.573C128.447,16.636 127.579,15.607 126.23,14.99C125.476,14.647 125.11,14.624 124.105,14.83C123.099,15.013 122.779,15.219 122.208,16.019C121.819,16.544 121.43,17.344 121.339,17.824C121.202,18.578 121.27,18.761 121.956,19.378C122.39,19.744 122.71,20.087 122.665,20.133C122.619,20.156 121.979,20.384 121.27,20.613C119.099,21.298 117.499,21.138 117.385,20.201C117.27,19.47 116.173,19.356 115.51,20.018C115.099,20.43 114.688,20.521 112.79,20.567C110.733,20.613 110.436,20.544 109.156,19.904C108.105,19.378 107.693,19.264 107.373,19.47C106.939,19.744 106.573,21.413 106.848,21.916C107.145,22.441 106.87,23.218 106.505,22.921C106.299,22.738 106.025,22.83 105.568,23.264C104.676,24.11 104.288,24.041 104.173,23.013C104.082,22.167 104.425,21.458 105.476,20.407C105.956,19.95 105.979,19.813 105.682,19.333C105.453,18.99 104.219,19.15 104.219,19.538C104.219,19.653 103.83,20.11 103.373,20.59C102.916,21.047 102.55,21.527 102.55,21.664C102.55,21.801 102.413,21.961 102.253,22.007C102.093,22.053 101.888,22.853 101.796,23.767C101.568,25.893 101.842,26.258 103.922,26.441C105.248,26.556 105.43,26.51 106.253,25.87C107.236,25.116 108.31,23.264 108.31,22.281C108.31,21.801 108.379,21.687 108.699,21.801C108.905,21.893 109.888,22.03 110.848,22.121C111.83,22.19 112.608,22.327 112.608,22.396C112.608,22.487 112.448,22.761 112.242,23.013C111.488,24.018 112.15,26.053 113.362,26.487C114.55,26.898 115.762,26.807 116.608,26.213C117.385,25.687 117.659,25.001 117.659,23.516C117.659,22.761 117.705,22.716 118.756,22.556C119.373,22.464 120.059,22.35 120.288,22.304C120.676,22.236 120.699,22.327 120.516,22.99C120.173,24.178 120.242,24.476 121.019,25.321C121.728,26.076 121.796,26.098 123.305,25.961C125.179,25.824 126.367,24.978 127.213,23.241C127.533,22.601 127.945,21.733 128.15,21.298C128.607,20.338 129.636,20.041 130.367,20.658C130.87,21.116 131.03,22.281 130.619,22.556C130.482,22.624 130.39,23.264 130.39,23.95C130.39,25.253 130.916,26.144 132.036,26.738C133.065,27.287 135.647,25.756 136.287,24.178C136.607,23.401 136.676,23.378 138.047,23.378C138.825,23.378 139.625,23.333 139.807,23.264C140.059,23.15 140.196,23.401 140.31,24.293C140.562,26.213 141.59,26.761 143.693,26.167C144.79,25.847 145.293,25.504 146.527,24.224C147.35,23.378 148.082,22.67 148.173,22.67C148.242,22.67 148.379,23.104 148.47,23.63C148.562,24.178 148.767,24.658 148.95,24.727C149.202,24.841 151.944,24.064 153.179,23.538C153.453,23.424 153.682,23.63 153.979,24.338C154.436,25.39 155.624,26.51 156.264,26.51C156.63,26.51 156.927,26.35 158.184,25.596C158.642,25.321 158.71,25.367 159.053,26.03C159.487,26.853 160.402,26.99 161.202,26.373C161.453,26.19 163.864,26.098 164.116,26.167C164.642,26.327 162.664,25.961 162.162,25.436C161.682,24.956 162.093,24.338 162.893,24.338C163.487,24.338 163.899,23.721 163.419,23.561C163.259,23.493 163.327,23.378 163.624,23.264C164.722,22.807 164.744,21.801 163.647,20.636C162.596,19.538 161.59,19.493 160.219,20.521C158.962,21.436 158.459,22.213 158.459,23.241C158.459,23.813 158.344,24.087 158.047,24.178C157.819,24.247 157.43,24.361 157.224,24.453C156.722,24.658 156.104,23.813 155.83,22.556C155.647,21.824 155.716,21.641 156.196,21.253C156.493,21.024 157.316,20.133 158.024,19.287C158.71,18.441 159.35,17.687 159.419,17.619C159.83,17.23 160.63,15.424 160.63,14.899C160.63,14.167 160.173,13.916 159.282,14.144C158.619,14.304 158.116,14.761 156.79,16.407C156.31,16.979 155.83,17.55 155.693,17.71C154.893,18.647 153.43,21.184 153.453,21.618C153.453,21.893 151.967,22.67 151.396,22.67C150.756,22.67 150.39,22.304 150.253,21.573C150.207,21.276 150.916,19.607 151.83,17.779C153.247,14.99 153.704,14.281 154.893,13.207C156.379,11.881 156.607,11.333 155.83,10.921C155.053,10.487 154.71,10.624 153.567,11.813ZM126.047,17.504C126.665,18.167 126.665,18.144 125.887,18.556C125.156,18.944 124.379,18.533 124.379,17.779C124.379,16.727 125.202,16.59 126.047,17.504ZM126.756,20.933C126.619,21.298 126.23,21.938 125.91,22.373C125.202,23.287 124.059,23.424 123.145,22.693L122.573,22.236L123.396,21.39C124.082,20.658 124.402,20.521 125.43,20.453C126.116,20.407 126.733,20.338 126.825,20.316C126.939,20.293 126.893,20.567 126.756,20.933ZM162.779,21.71C163.236,22.076 163.304,22.236 163.076,22.396C162.893,22.51 162.779,22.738 162.824,22.921C162.916,23.333 161.43,24.087 160.447,24.087C159.739,24.11 159.67,24.041 159.67,23.447C159.67,22.99 159.922,22.533 160.516,22.007C161.476,21.116 161.933,21.047 162.779,21.71ZM115.83,21.847C116.105,22.578 115.968,23.561 115.533,23.95C115.122,24.338 115.076,24.316 114.688,23.881C114.208,23.378 114.345,22.556 114.916,22.35C115.099,22.258 115.259,22.03 115.259,21.847C115.259,21.367 115.648,21.367 115.83,21.847Z" style="fill-rule:nonzero;"/>
	<path d="M168.813,22.807C167.282,24.293 165.453,25.298 164.287,25.298C163.396,25.321 162.779,25.847 162.779,26.624C162.779,27.013 162.573,27.264 162.07,27.47C161.659,27.63 161.339,27.904 161.339,28.087C161.339,28.27 161.179,28.361 160.973,28.27C160.79,28.201 160.059,28.498 159.35,28.956C158.07,29.801 155.944,30.784 154.276,31.31C153.773,31.47 152.516,31.996 151.51,32.453C148.562,33.801 143.145,35.561 140.95,35.858C139.807,35.996 137.819,36.384 136.493,36.704C133.042,37.55 130.39,38.007 127.373,38.281C125.933,38.418 123.83,38.624 122.71,38.738C121.568,38.876 119.739,39.036 118.619,39.127C117.499,39.218 116.082,39.333 115.51,39.378C114.916,39.447 113.545,39.516 112.493,39.561C109.225,39.698 106.802,39.973 105.179,40.338C103.168,40.818 101.659,40.864 99.305,40.453C94.871,39.721 88.105,39.104 79.145,38.624C75.602,38.441 68.791,38.441 65.111,38.647C63.442,38.738 60.905,38.83 59.465,38.853C56.174,38.898 48.699,39.401 46.619,39.721C44.197,40.087 39.557,40.43 36.768,40.43C34.528,40.43 32.448,40.613 22.62,41.664C21.362,41.778 19.374,42.098 18.185,42.35C16.997,42.601 15.488,42.875 14.825,42.967C14.162,43.058 13.202,43.287 12.7,43.47C12.174,43.653 11.397,43.79 10.94,43.79C9.157,43.79 3.831,45.915 2.46,47.173C1.728,47.813 1.363,48.818 1.591,49.413C1.66,49.595 2.003,49.961 2.368,50.19C2.963,50.578 3.625,50.624 8.563,50.601C12.974,50.601 14.368,50.51 15.42,50.19C16.151,49.984 17.774,49.687 19.031,49.55C20.265,49.413 23.031,49.093 25.134,48.818C27.26,48.567 30.985,48.247 33.431,48.11C35.854,47.973 38.665,47.721 39.671,47.515C42.208,47.035 43.305,46.898 45.911,46.784C48.539,46.67 51.602,46.35 53.819,45.984C55.854,45.664 60.654,45.23 63.694,45.115C65.019,45.047 66.299,44.933 66.551,44.864C66.802,44.773 67.579,44.681 68.288,44.635C68.974,44.59 70.139,44.43 70.871,44.27C72.196,43.995 77.454,43.47 81.773,43.173C83.099,43.081 84.219,42.967 84.288,42.921C84.333,42.875 84.516,42.967 84.699,43.104C84.882,43.264 85.613,43.424 86.299,43.447C86.985,43.493 88.882,43.584 90.551,43.675C95.716,43.927 97.316,44.041 97.545,44.178C97.659,44.247 99.145,44.407 100.813,44.521C102.482,44.635 104.608,44.91 105.545,45.115C106.459,45.344 107.808,45.618 108.539,45.71C109.27,45.824 110.299,46.03 110.825,46.19C111.35,46.327 112.745,46.67 113.933,46.921C116.47,47.447 117.842,47.79 122.23,48.955C123.99,49.435 126.047,49.961 126.779,50.144C127.51,50.304 128.585,50.601 129.179,50.807C129.773,51.013 131.122,51.241 132.173,51.333C133.225,51.424 134.207,51.584 134.322,51.698C134.459,51.813 135.327,52.018 136.265,52.178C137.179,52.315 138.825,52.727 139.899,53.047C140.973,53.367 141.979,53.641 142.116,53.641C142.893,53.641 147.602,55.721 148.607,56.521C149.224,57.001 150.093,57.595 150.55,57.824C151.007,58.053 151.579,58.464 151.807,58.693C152.79,59.721 154.664,58.784 154.207,57.504C153.956,56.864 151.35,54.738 149.887,54.03C149.247,53.733 147.83,52.978 146.71,52.407C145.567,51.813 144.333,51.195 143.945,51.058C143.533,50.898 141.933,50.304 140.333,49.71C138.756,49.115 136.767,48.521 135.899,48.361C135.03,48.201 133.682,47.927 132.905,47.767C130.985,47.333 129.179,46.99 127.145,46.67C126.207,46.51 124.265,46.075 122.825,45.664C117.75,44.27 113.545,43.264 110.939,42.807C110.093,42.67 109.225,42.464 109.042,42.35C108.653,42.144 109.27,42.053 114.893,41.618C118.642,41.344 119.922,41.207 121.133,41.024C121.545,40.956 122.939,40.796 124.265,40.681C129.316,40.178 131.099,39.927 134.55,39.218C136.516,38.807 138.367,38.373 138.71,38.258C139.03,38.121 139.625,38.03 140.059,38.03C140.47,38.03 141.567,37.824 142.505,37.573C143.419,37.321 144.836,36.933 145.613,36.727C146.413,36.521 147.487,36.178 148.013,35.95C148.539,35.744 149.362,35.401 149.819,35.218C150.276,35.036 151.053,34.67 151.533,34.418C152.013,34.167 153.156,33.664 154.047,33.321C156.31,32.476 158.276,31.493 160.264,30.236C161.179,29.641 162.093,29.093 162.299,29.024C162.504,28.956 163.099,28.658 163.624,28.384C166.116,27.081 166.824,26.761 167.83,26.327C170.276,25.298 171.899,23.813 171.899,22.624C171.899,22.258 170.801,21.458 170.344,21.458C170.253,21.458 169.567,22.076 168.813,22.807ZM70.688,42.167C70.185,42.258 69.088,42.441 68.219,42.578C67.351,42.715 66.391,42.875 66.071,42.921C65.728,42.99 64.219,43.15 62.711,43.287C56.791,43.858 54.848,44.064 53.454,44.27C52.677,44.407 50.071,44.658 47.694,44.864C45.317,45.07 42.459,45.39 41.339,45.573C38.734,46.03 34.437,46.487 34.208,46.35C33.979,46.213 24.585,47.195 19.991,47.858C13.202,48.818 4.86,49.161 4.86,48.475C4.86,48.293 5.111,47.995 5.431,47.813C5.751,47.653 6.414,47.287 6.94,46.99C7.991,46.418 10.757,45.961 12.905,46.007C13.682,46.007 14.825,45.915 15.42,45.755C16.608,45.458 19.122,44.933 19.854,44.841C20.128,44.795 20.768,44.681 21.294,44.613C21.82,44.521 22.825,44.407 23.488,44.384C24.174,44.361 25.248,44.201 25.888,44.064C28.105,43.584 30.071,43.287 31.557,43.195C35.899,42.921 36.974,42.853 40.631,42.715C42.802,42.647 44.951,42.533 45.431,42.464C45.888,42.395 47.488,42.304 48.997,42.235C51.877,42.098 53.979,41.961 57.202,41.687C59.625,41.458 64.174,41.504 68.036,41.733C70.688,41.915 70.871,41.893 70.871,41.481C70.871,41.047 70.894,41.07 71.236,41.504C71.579,41.961 71.556,42.007 70.688,42.167Z" style="fill-rule:nonzero;"/>
	<path d="M133.27,28.864C132.927,29.504 132.95,29.618 133.362,29.618C133.773,29.618 134.07,28.91 133.773,28.613C133.636,28.453 133.453,28.567 133.27,28.864Z" style="fill-rule:nonzero;"/>
</svg>
